<svg xmlns="http://www.w3.org/2000/svg" width="504" height="504" viewBox="0 0 504 504"><g fill="#414042"><path d="M111.634 467.07H53.64c.265 3.45 1.032 6.502 2.302 9.155s3.014 5.005 5.23 7.05c2.22 2.05 4.787 3.705 7.706 4.977 2.918 1.27 6.083 1.903 9.495 1.903 5.118 0 9.732-1.354 13.845-4.064 4.113-2.71 7.098-6.377 8.956-11h8.64c-1.44 3.902-3.183 7.127-5.23 9.664-3.26 4.057-7.163 7.193-11.71 9.41-4.55 2.217-9.48 3.326-14.785 3.326-9.097 0-16.84-3.184-23.227-9.55-6.388-6.37-9.58-14.142-9.58-23.312 0-6.104 1.478-11.8 4.434-17.087 2.957-5.287 7.088-9.428 12.395-12.423 5.307-2.992 10.783-4.492 16.432-4.492 5.61 0 11.05 1.5 16.318 4.492 5.268 2.995 9.39 7.163 12.366 12.51 2.975 5.345 4.463 10.917 4.463 16.716 0 .645-.02 1.555-.056 2.727zm-8.244-7.333c-.646-3.26-1.544-6.018-2.7-8.273-1.157-2.255-2.777-4.396-4.862-6.425-2.085-2.027-4.633-3.715-7.646-5.06-3.013-1.346-6.246-2.02-9.695-2.02-3.374 0-6.51.626-9.41 1.878-2.898 1.25-5.43 2.852-7.59 4.803-2.16 1.953-3.856 4.16-5.087 6.626-1.232 2.463-2.152 5.286-2.758 8.47h49.748zM124.085 495.955v-63.68h8.13v8.13h.23c4.433-6.518 11.16-9.78 20.183-9.78 4.283 0 8.16.78 11.627 2.332 3.468 1.556 6.51 3.772 9.125 6.653 1.706 1.933 3.107 4.377 4.208 7.334 1.667 4.322 2.5 8.983 2.5 13.987v35.024h-8.13V460.93c0-5.116-.92-9.428-2.756-12.935-1.84-3.505-4.37-6.054-7.59-7.647-3.223-1.592-6.426-2.388-9.61-2.388-3.374 0-6.7.882-9.978 2.645-3.28 1.762-5.733 4.35-7.363 7.76-1.63 3.45-2.443 7.64-2.443 12.566v35.024h-8.132zM258.325 467.07H200.33c.266 3.45 1.032 6.502 2.302 9.155 1.27 2.653 3.014 5.005 5.23 7.05 2.218 2.05 4.786 3.705 7.704 4.977 2.92 1.27 6.085 1.903 9.496 1.903 5.118 0 9.73-1.354 13.844-4.064 4.113-2.71 7.1-6.377 8.956-11h8.64c-1.438 3.902-3.183 7.127-5.23 9.664-3.26 4.057-7.16 7.193-11.71 9.41-4.55 2.217-9.477 3.326-14.784 3.326-9.097 0-16.84-3.184-23.225-9.55-6.388-6.37-9.58-14.142-9.58-23.312 0-6.104 1.477-11.8 4.434-17.087 2.957-5.287 7.087-9.428 12.395-12.423 5.307-2.992 10.784-4.492 16.432-4.492 5.61 0 11.05 1.5 16.318 4.492 5.267 2.995 9.39 7.163 12.366 12.51 2.975 5.345 4.464 10.917 4.464 16.716 0 .645-.02 1.555-.057 2.727zm-8.246-7.333c-.645-3.26-1.545-6.018-2.7-8.273-1.16-2.255-2.776-4.396-4.862-6.425-2.085-2.027-4.632-3.715-7.646-5.06-3.013-1.346-6.245-2.02-9.695-2.02-3.374 0-6.51.626-9.41 1.878-2.898 1.25-5.43 2.852-7.59 4.803-2.16 1.953-3.856 4.16-5.087 6.626-1.233 2.463-2.152 5.286-2.758 8.47h49.747zM270.776 495.955v-63.68h8.13v9.21h.23c1.1-2.424 2.377-4.367 3.836-5.827 1.46-1.46 3.25-2.595 5.374-3.413 2.123-.813 5.04-1.352 8.756-1.62v8.645c-4.17.417-7.63 1.524-10.377 3.326-2.75 1.8-4.74 4.227-5.97 7.276-1.23 3.052-1.848 6-1.848 8.843v37.24h-8.13zM321.98 495.955V439.61h-13.36v-7.334h13.36V409.76h8.188v22.517h15.238v7.334h-15.238v56.346h-8.188zM359.814 424.43v-14.67h8.13v14.67h-8.13zm0 71.525v-63.68h8.13v63.68h-8.13zM409.074 495.955l-26.893-63.68h8.755l22.46 53.56 22.798-53.56h8.758l-26.892 63.68h-8.984z"/></g><g><path fill="#00AEEF" d="M476.393 109.973l-69.873 35.85c-3.07-9.69-6.993-19.255-11.785-28.59-2.378-4.65-4.95-9.16-7.667-13.507l69.59-35.69c2.36 4.063 4.632 8.198 6.797 12.422 4.97 9.69 9.28 19.54 12.938 29.515z"/><path fill="#414042" d="M296.643 81.7c-38.193-20.854-85.705-23.037-127.34-1.668-66.804 34.29-93.195 116.25-58.906 183.087 34.29 66.82 116.266 93.193 183.07 58.904 29.23-15.015 50.74-39.134 62.79-67.123l57.097-29.283c-7.827 57.45-42.666 110.268-98.164 138.753-90.212 46.286-200.853 10.684-247.14-79.528-46.286-90.23-10.684-200.89 79.53-247.175 82.296-42.205 181.595-16.275 233.543 57.095l-42.933 22.025c-11.554-14.66-25.752-26.48-41.547-35.087z"/><path fill="#00AEEF" d="M334.747 147.492c-2.325-4.526-4.898-8.856-7.738-12.938M345.254 177.255M476.393 109.973L145.11 279.943c-7.027-7.596-13.115-16.257-18.066-25.894-2.325-4.527-4.313-9.14-6-13.81L456.658 68.036"/><path fill="#414042" d="M338.19 116.788l-17.73 9.104c-12.388-14.855-28.06-26.09-45.363-33.135L296.643 81.7c15.795 8.608 29.993 20.428 41.546 35.088zM381.122 94.763L117.85 229.86c-4.863-18.725-4.845-37.98-.497-56.155L296.643 81.7"/></g></svg>