<?xml version="1.0" encoding="utf-8"?>
<!-- Generator: Adobe Illustrator 16.2.0, SVG Export Plug-In . SVG Version: 6.00 Build 0)  -->
<!DOCTYPE svg PUBLIC "-//W3C//DTD SVG 1.1//EN" "http://www.w3.org/Graphics/SVG/1.1/DTD/svg11.dtd">
<svg version="1.1" id="Layer_1" xmlns="http://www.w3.org/2000/svg" xmlns:xlink="http://www.w3.org/1999/xlink" x="0px" y="0px"
	 width="504px" height="504px" viewBox="0 0 504 504" enable-background="new 0 0 504 504" xml:space="preserve">
<g>
	<g>
		<path fill="#414042" d="M111.634,467.07H53.64c0.265,3.451,1.032,6.502,2.302,9.155s3.014,5.005,5.231,7.051
			c2.218,2.048,4.786,3.704,7.705,4.976c2.918,1.271,6.083,1.903,9.495,1.903c5.118,0,9.732-1.354,13.845-4.064
			c4.113-2.71,7.098-6.378,8.956-11.002h8.641c-1.441,3.903-3.184,7.128-5.23,9.665c-3.26,4.057-7.164,7.193-11.712,9.411
			c-4.549,2.216-9.478,3.325-14.784,3.325c-9.096,0-16.839-3.184-23.226-9.551c-6.388-6.37-9.58-14.141-9.58-23.311
			c0-6.104,1.478-11.799,4.434-17.087c2.957-5.288,7.088-9.429,12.395-12.424c5.307-2.992,10.783-4.492,16.432-4.492
			c5.609,0,11.049,1.5,16.318,4.492c5.268,2.995,9.39,7.163,12.366,12.509c2.975,5.346,4.463,10.918,4.463,16.717
			C111.69,464.988,111.671,465.898,111.634,467.07z M103.39,459.737c-0.646-3.259-1.544-6.018-2.7-8.273
			c-1.157-2.255-2.777-4.396-4.862-6.425c-2.085-2.026-4.633-3.714-7.646-5.06c-3.013-1.345-6.246-2.019-9.695-2.019
			c-3.374,0-6.51,0.626-9.409,1.878c-2.899,1.249-5.43,2.852-7.59,4.803c-2.161,1.952-3.857,4.16-5.088,6.625
			c-1.232,2.463-2.152,5.286-2.758,8.471H103.39z"/>
		<path fill="#414042" d="M124.085,495.955v-63.679h8.131v8.13h0.228c4.434-6.519,11.162-9.78,20.184-9.78
			c4.283,0,8.159,0.778,11.627,2.331c3.468,1.556,6.509,3.772,9.125,6.653c1.706,1.933,3.107,4.377,4.208,7.334
			c1.667,4.322,2.501,8.983,2.501,13.987v35.023h-8.13v-35.023c0-5.117-0.92-9.429-2.757-12.936
			c-1.839-3.505-4.369-6.054-7.591-7.647c-3.222-1.592-6.425-2.388-9.609-2.388c-3.374,0-6.7,0.882-9.978,2.645
			c-3.279,1.762-5.733,4.349-7.363,7.76c-1.63,3.451-2.444,7.64-2.444,12.566v35.023H124.085z"/>
		<path fill="#414042" d="M258.325,467.07h-57.995c0.266,3.451,1.032,6.502,2.302,9.155c1.27,2.653,3.014,5.005,5.23,7.051
			c2.218,2.048,4.786,3.704,7.704,4.976c2.919,1.271,6.085,1.903,9.496,1.903c5.118,0,9.731-1.354,13.844-4.064
			c4.113-2.71,7.099-6.378,8.956-11.002h8.641c-1.439,3.903-3.184,7.128-5.23,9.665c-3.26,4.057-7.162,7.193-11.71,9.411
			c-4.55,2.216-9.478,3.325-14.785,3.325c-9.097,0-16.839-3.184-23.225-9.551c-6.388-6.37-9.581-14.141-9.581-23.311
			c0-6.104,1.478-11.799,4.435-17.087c2.957-5.288,7.087-9.429,12.395-12.424c5.307-2.992,10.784-4.492,16.432-4.492
			c5.609,0,11.049,1.5,16.318,4.492c5.267,2.995,9.39,7.163,12.366,12.509c2.975,5.346,4.464,10.918,4.464,16.717
			C258.382,464.988,258.362,465.898,258.325,467.07z M250.079,459.737c-0.644-3.259-1.544-6.018-2.698-8.273
			c-1.16-2.255-2.777-4.396-4.863-6.425c-2.085-2.026-4.632-3.714-7.646-5.06c-3.013-1.345-6.245-2.019-9.695-2.019
			c-3.374,0-6.509,0.626-9.409,1.878c-2.899,1.249-5.43,2.852-7.59,4.803c-2.161,1.952-3.857,4.16-5.088,6.625
			c-1.233,2.463-2.152,5.286-2.758,8.471H250.079z"/>
		<path fill="#414042" d="M270.776,495.955v-63.679h8.131v9.21h0.228c1.1-2.425,2.378-4.368,3.837-5.828
			c1.459-1.459,3.249-2.595,5.374-3.413c2.123-0.813,5.039-1.352,8.756-1.619v8.644c-4.17,0.417-7.629,1.524-10.377,3.326
			c-2.749,1.8-4.739,4.227-5.971,7.276c-1.23,3.052-1.847,6-1.847,8.843v37.24H270.776z"/>
		<path fill="#414042" d="M321.98,495.955V439.61h-13.361v-7.334h13.361V409.76h8.188v22.517h15.238v7.334h-15.238v56.345H321.98z"
			/>
		<path fill="#414042" d="M359.814,424.429V409.76h8.129v14.669H359.814z M359.814,495.955v-63.679h8.129v63.679H359.814z"/>
		<path fill="#414042" d="M409.074,495.955l-26.893-63.679h8.754l22.459,53.558l22.799-53.558h8.758l-26.893,63.679H409.074z"/>
	</g>
	<g id="XMLID_1_">
		<g>
			<path fill="#00AEEF" d="M476.393,109.973l-69.873,35.851c-3.07-9.69-6.993-19.256-11.785-28.592
				c-2.378-4.65-4.951-9.158-7.667-13.506l69.59-35.691c2.36,4.064,4.632,8.199,6.797,12.423
				C468.424,90.148,472.736,99.999,476.393,109.973z"/>
			<path fill="#414042" d="M296.643,81.7c-38.193-20.854-85.705-23.037-127.341-1.668c-66.803,34.289-93.194,116.249-58.905,183.087
				c34.289,66.82,116.266,93.194,183.069,58.905c29.231-15.015,50.741-39.134,62.792-67.123l57.096-29.284
				c-7.827,57.45-42.666,110.268-98.164,138.753c-90.212,46.286-200.853,10.684-247.139-79.528
				c-46.287-90.23-10.685-200.889,79.528-247.175c82.297-42.205,181.596-16.275,233.544,57.095l-42.933,22.025
				C326.636,102.128,312.438,90.308,296.643,81.7z"/>
			<path fill="#00AEEF" d="M334.747,147.492c-2.325-4.526-4.898-8.856-7.738-12.938"/>
			<path fill="#00AEEF" d="M345.254,177.255"/>
			<path fill="#00AEEF" d="M476.393,109.973L145.111,279.944c-7.028-7.597-13.116-16.258-18.067-25.895
				c-2.325-4.526-4.313-9.14-5.999-13.808L456.657,68.035"/>
			<path fill="#414042" d="M338.189,116.788l-17.729,9.104c-12.388-14.855-28.06-26.089-45.363-33.135L296.643,81.7
				C312.438,90.308,326.636,102.128,338.189,116.788z"/>
			<path fill="#414042" d="M381.122,94.763L117.85,229.859c-4.863-18.724-4.845-37.98-0.497-56.154L296.643,81.7"/>
		</g>
		<g>
		</g>
	</g>
</g>
</svg>
